<svg width="640" height="960" viewBox="0 0 640 960" fill="none" xmlns="http://www.w3.org/2000/svg">
<g clip-path="url(#clip0_113_1010)">
<path d="M-400 782.4L-352 776C-304 769.6 -208 756.8 -112 754.08C-16 751.52 80 758.88 176 747.2C272 735.52 368 704.48 464 694.72C560 684.8 656 696 752 712.32C848 728.48 944 749.92 992 760.48L1040 771.2V961.6H992C944 961.6 848 961.6 752 961.6C656 961.6 560 961.6 464 961.6C368 961.6 272 961.6 176 961.6C80 961.6 -16 961.6 -112 961.6C-208 961.6 -304 961.6 -352 961.6H-400V782.4Z" fill="#EDDCC4"/>
</g>
<defs>
<clipPath id="clip0_113_1010">
<rect width="1440" height="960" fill="white" transform="translate(-400)"/>
</clipPath>
</defs>
</svg>
