<svg width="147" height="147" viewBox="0 0 147 147" fill="none" xmlns="http://www.w3.org/2000/svg">
<path d="M111.28 95.3962L106.446 91.5199C105.645 90.8676 104.825 90.2388 104.005 89.6108L101.544 87.7236C100.671 87.0607 99.8064 86.3818 98.9197 85.733C98.031 85.0872 97.1376 84.4498 96.2393 83.8209C95.0379 82.9882 93.8435 82.1453 92.6353 81.323L88.9858 78.8926C86.5664 77.2522 84.0871 75.7036 81.6268 74.1268L79.7782 72.9496L77.9094 71.8045L74.1741 69.511L73.24 68.9381L72.296 68.3816L70.4088 67.2673L66.6376 65.0325L61.948 62.3585C61.1653 61.9145 60.3884 61.4602 59.6014 61.0241L57.2331 59.7287C55.6518 58.8695 54.082 57.9886 52.4921 57.1451L47.7094 54.6385C41.3072 51.3462 34.8454 48.1609 28.2708 45.2214C27.2835 44.7684 26.3007 44.2917 25.3251 43.8063C24.344 43.3327 23.3684 42.8619 22.3983 42.3937C20.5473 41.4934 19.442 40.6866 18.8315 40.0005C17.9416 39.0026 19.2887 38.9192 22.0553 39.9101C22.9298 40.2243 23.8357 40.5759 24.7423 40.9456C25.1942 41.134 25.6479 41.323 26.0993 41.5112C26.5445 41.7136 26.9876 41.9151 27.4242 42.1137C29.4312 43.0371 31.4368 43.9598 33.4409 44.8818C35.4315 45.833 37.4261 46.7727 39.4249 47.7008C40.4287 48.156 41.4132 48.6508 42.408 49.1246L45.391 50.5487C47.3912 51.4756 49.359 52.467 51.3469 53.4222C52.4417 53.9537 53.5688 54.478 54.6712 55.032C55.7674 55.5974 56.8476 56.1759 57.8673 56.7789C61.1399 58.6763 64.4092 60.5972 67.7123 62.4644L72.6109 65.3614C73.4242 65.849 74.2433 66.3266 75.0477 66.8278L77.4469 68.3508L81.014 70.6162C82.1957 71.385 83.3782 72.1544 84.5614 72.9242L88.1076 75.2382C89.2731 76.0342 90.4379 76.83 91.6023 77.6254C92.6359 78.341 93.6785 79.0432 94.7036 79.7705L97.7664 81.9696L100.825 84.1727L103.842 86.4327L106.858 88.6931L109.83 91.01L112.801 93.3277C113.788 94.1039 114.744 94.9203 115.717 95.7142C116.49 96.3519 117.243 96.9894 117.977 97.6265C118.341 97.9478 118.701 98.2662 119.058 98.5816C119.408 98.9059 119.748 99.2343 120.084 99.5596C121.427 100.862 122.667 102.158 123.788 103.429C124.826 104.59 124.469 104.85 122.928 103.91C122.657 103.742 122.384 103.573 122.109 103.403C121.838 103.23 121.58 103.038 121.314 102.854L119.721 101.723C118.662 100.955 117.593 100.178 116.526 99.4038C114.775 98.1268 113.048 96.7302 111.324 95.3713C111.309 95.3793 111.296 95.3868 111.28 95.3962Z" fill="black"/>
<path d="M87.3193 87.6585C91.2507 88.6734 95.1256 89.896 98.9276 91.3211C99.9288 91.7105 100.932 92.1005 101.936 92.4911C102.928 92.9064 103.922 93.3144 104.92 93.7065C109.152 95.4375 113.285 97.3861 117.328 99.4765C121.371 101.572 125.335 103.792 129.256 106.069L127.223 108.403C126.864 107.963 126.537 107.499 126.197 107.045L125.69 106.36C125.605 106.246 125.524 106.13 125.436 106.019C125.366 105.893 125.282 105.779 125.206 105.658C125.047 105.422 124.9 105.177 124.732 104.948L124.227 104.262C123.889 103.806 123.538 103.36 123.195 102.908C118.944 97.3901 114.596 91.9478 110.294 86.4686C108.134 83.7366 105.998 80.985 103.86 78.2349L97.445 69.9859C96.1546 68.3271 94.9177 66.6003 93.707 64.9118C92.5486 63.2939 91.9742 62.1087 91.7642 61.2589C91.4579 60.022 92.6203 60.5976 94.4816 62.7212C95.6587 64.0653 96.873 65.5911 97.9948 67.0559C100.579 70.4279 103.193 73.7694 105.837 77.0804C107.159 78.7363 108.491 80.3843 109.831 82.0247C111.165 83.6705 112.507 85.3094 113.859 86.9414C115.35 88.7428 116.931 90.5952 118.274 92.4331C121.842 97.2743 125.581 102.022 129.567 106.557C129.785 106.806 129.908 107.124 129.913 107.454C129.919 107.785 129.807 108.107 129.597 108.363C129.387 108.618 129.094 108.791 128.768 108.85C128.443 108.909 128.107 108.851 127.821 108.686L127.749 108.643C126.663 108.013 125.582 107.377 124.506 106.735C119.869 103.987 115.093 101.446 110.27 99.0778C105.984 96.9504 101.576 95.0765 97.07 93.4659C92.5583 91.8723 87.9438 90.5862 83.2583 89.6164C81.382 89.2537 79.5727 88.8267 77.8266 88.4341C77.3911 88.3303 76.9607 88.2226 76.5354 88.1111C76.323 88.0529 76.1118 87.9951 75.902 87.9375C75.6913 87.884 75.482 87.8308 75.2739 87.778C74.4409 87.5698 73.6333 87.3167 72.8456 87.0865C71.3978 86.6576 71.5305 86.2268 73.2938 86.0909C73.6059 86.0685 73.92 86.0459 74.2358 86.0231C74.5511 86.008 74.8643 86.0262 75.1811 86.0277C75.4974 86.0344 75.815 86.041 76.1338 86.0478C76.4518 86.065 76.771 86.0823 77.0903 86.1072C77.7291 86.1595 78.3704 86.212 79.0144 86.2647C79.6577 86.3214 80.3034 86.3747 80.9422 86.4743C81.9948 86.6216 83.0571 86.8027 84.12 86.9997C85.176 87.2344 86.2359 87.4698 87.2893 87.7039L87.3193 87.6585Z" fill="black"/>
</svg>
