<svg width="146" height="146" viewBox="0 0 146 146" fill="none" xmlns="http://www.w3.org/2000/svg">
<path d="M38.6045 99.9315L43.9981 96.8823C44.9013 96.3804 45.7893 95.8529 46.677 95.3242L49.3427 93.7401C50.2823 93.1755 51.2339 92.6245 52.1654 92.042C53.095 91.4566 54.0185 90.8635 54.9359 90.2629C56.1551 89.4565 57.3812 88.6604 58.5932 87.8437L62.2047 85.3573C64.626 83.7196 66.9843 81.9923 69.3617 80.2932L71.1411 79.0137L72.8981 77.7035L76.4143 75.0865L77.293 74.4319L78.1602 73.7619L79.8955 72.4232L83.3705 69.7511L87.5944 66.3892C88.2971 65.8273 89.0073 65.2745 89.7045 64.7056L91.7865 62.9874C93.1712 61.838 94.572 60.7074 95.9455 59.5442L100.048 56.0338C105.482 51.3113 110.838 46.4937 116.009 41.48C116.796 40.7314 117.603 39.9958 118.416 39.2701C119.22 38.5349 120.019 37.8038 120.814 37.0768C122.337 35.6923 123.497 34.9654 124.36 34.6533C125.617 34.1974 125.195 35.4793 123.248 37.6803C122.631 38.3757 121.968 39.0863 121.289 39.7909C120.946 40.1405 120.602 40.4916 120.26 40.841C119.906 41.1792 119.555 41.5158 119.208 41.8475C117.606 43.3684 116.005 44.8881 114.405 46.4067C112.782 47.902 111.169 49.4053 109.566 50.9167C108.77 51.6798 107.945 52.4103 107.136 53.1581L104.707 55.3993C103.103 56.9125 101.452 58.3716 99.8274 59.8629C98.9275 60.6822 98.0222 61.5342 97.0986 62.3521C96.1667 63.1601 95.2285 63.9483 94.2901 64.6713C91.3134 67.0058 88.3161 69.3283 85.3561 71.7023L80.8477 75.1754C80.093 75.7495 79.3455 76.3329 78.5815 76.8938L76.2767 78.5562L72.849 81.0274C71.6964 81.8393 70.5431 82.6517 69.389 83.4645L65.924 85.8984C64.7522 86.685 63.5809 87.4713 62.4101 88.2571C61.3619 88.9513 60.3229 89.6587 59.2669 90.3406L56.088 92.3682L52.9068 94.3906L49.6884 96.3529L46.4701 98.314L43.2154 100.214L39.9604 102.112C38.8731 102.741 37.7604 103.325 36.662 103.934C35.7829 104.415 34.9113 104.878 34.0473 105.322C33.6139 105.541 33.1845 105.758 32.759 105.972C32.328 106.176 31.8969 106.37 31.4702 106.561C29.7625 107.325 28.0984 107.995 26.502 108.564C25.0391 109.097 24.9296 108.669 26.375 107.587C26.6316 107.398 26.8898 107.207 27.1494 107.015C27.4113 106.828 27.6848 106.659 27.9544 106.48L29.5958 105.421C30.7025 104.723 31.8206 104.018 32.9358 103.315C34.7713 102.164 36.7094 101.078 38.6113 99.9818C38.6091 99.9654 38.6071 99.9504 38.6045 99.9315Z" fill="black"/>
<path d="M54.6837 80.5557C52.2819 83.8294 49.7082 86.9735 46.9736 89.9748C46.2403 90.76 45.506 91.5462 44.7705 92.3337C44.0166 93.1009 43.2686 93.8727 42.5341 94.6539C39.3557 97.941 36.0124 101.054 32.5702 104.033C29.1242 107.009 25.5909 109.865 22.0209 112.662L20.609 109.907C21.1502 109.737 21.7029 109.606 22.2509 109.458L23.0746 109.243C23.2116 109.206 23.3497 109.173 23.4858 109.133C23.6285 109.115 23.7658 109.079 23.9061 109.053C24.1843 108.994 24.4665 108.948 24.7415 108.877L25.5658 108.663C26.1147 108.518 26.6592 108.358 27.2062 108.206C33.9077 106.308 40.5752 104.291 47.2599 102.331C50.5987 101.339 53.9466 100.377 57.2938 99.4125L67.3347 96.5182C69.354 95.9358 71.4165 95.4283 73.4338 94.9309C75.3662 94.4559 76.6799 94.3625 77.5469 94.483C78.8091 94.6577 77.8431 95.5233 75.1803 96.4633C73.4953 97.0574 71.6277 97.6185 69.8512 98.1164C65.7608 99.2643 61.6877 100.451 57.6319 101.677C55.6034 102.29 53.5788 102.915 51.5581 103.55C49.5348 104.178 47.5146 104.816 45.4977 105.465C43.2712 106.181 40.9644 106.961 38.7594 107.526C32.9395 109.042 27.143 110.752 21.4524 112.769C21.1407 112.879 20.7998 112.875 20.4907 112.758C20.1816 112.64 19.9243 112.416 19.7647 112.127C19.6052 111.837 19.5537 111.5 19.6196 111.176C19.6854 110.852 19.8643 110.562 20.1243 110.357L20.1901 110.306C21.1784 109.532 22.1702 108.764 23.1655 108.004C27.4388 104.718 31.5716 101.226 35.5606 97.6274C39.1272 94.4371 42.5034 91.04 45.6717 87.4538C48.8262 83.8561 51.7334 80.0487 54.3733 76.058C55.4066 74.4504 56.4747 72.9289 57.4874 71.4533C57.7455 71.0875 58.0052 70.7278 58.2666 70.3743C58.3995 70.1986 58.5316 70.0241 58.663 69.8506C58.7909 69.6748 58.918 69.5002 59.0443 69.3266C59.5468 68.6304 60.0816 67.9744 60.5878 67.3285C61.5235 66.1433 61.8743 66.4265 61.3458 68.1142C61.2508 68.4124 61.1552 68.7124 61.0591 69.0141C60.9562 69.3125 60.8229 69.5965 60.7039 69.8901C60.5803 70.1813 60.4563 70.4738 60.3316 70.7673C60.1976 71.0562 60.063 71.3462 59.9214 71.6334C59.6357 72.2071 59.3489 72.7832 59.0609 73.3616C58.7694 73.9379 58.4803 74.5176 58.1506 75.0737C57.6231 75.9965 57.0606 76.9157 56.4831 77.8295C55.8731 78.723 55.2611 79.6197 54.6527 80.5109L54.6837 80.5557Z" fill="black"/>
</svg>
